<?xml version="1.0" encoding="UTF-8"?>
<svg version="1.1" xmlns="http://www.w3.org/2000/svg" width="100" height="100">
<path d="M0 0 C33 0 66 0 100 0 C100 33 100 66 100 100 C67 100 34 100 0 100 C0 67 0 34 0 0 Z " fill="#FDFDFD" transform="translate(0,0)"/>
<path d="M0 0 C6.59185242 1.4831668 11.75536621 5.52019064 15.3984375 11.16796875 C18 16.23271277 18 16.23271277 18 19 C19.98 18.34 21.96 17.68 24 17 C23.01 13.37 22.02 9.74 21 6 C25 5 25 5 26 5 C27.34136367 4.34964186 28.67532254 3.6837045 30 3 C30.495 3.99 30.495 3.99 31 5 C31.33 4.34 31.66 3.68 32 3 C33.32 3 34.64 3 36 3 C36.495 3.99 36.495 3.99 37 5 C37.33 4.34 37.66 3.68 38 3 C39.32 3.66 40.64 4.32 42 5 C42 5.66 42 6.32 42 7 C42.33 6.34 42.66 5.68 43 5 C44.32 5.33 45.64 5.66 47 6 C46.01 9.63 45.02 13.26 44 17 C45.98 17.33 47.96 17.66 50 18 C50.5259375 16.2365625 50.5259375 16.2365625 51.0625 14.4375 C53.39947401 8.22026724 57.7080544 4.48302362 63.1875 0.9375 C66 -0 66 -0 68.3125 0.625 C70.74221639 2.60476891 70.94936253 4.5731069 71.30859375 7.6015625 C71.60059635 14.45035081 70.86846752 18.72705303 66.66015625 24.21875 C64.63936657 26.38693845 62.74273699 27.85719292 60 29 C59.34 29 58.68 29 58 29 C58.33773437 29.65742188 58.67546875 30.31484375 59.0234375 30.9921875 C60.26508554 34.81646345 59.97533723 38.19004021 59.625 42.125 C59.50750409 43.64821563 59.3929195 45.17165864 59.28125 46.6953125 C59.22710937 47.43297852 59.17296875 48.17064453 59.1171875 48.93066406 C58.964413 51.62840704 59.03323569 54.30059984 59.125 57 C59.18979273 65.56559904 55.77197414 72.07780826 51 79 C50.71125 78.401875 50.4225 77.80375 50.125 77.1875 C48.95257974 74.80672208 48.95257974 74.80672208 47 72 C47.969375 71.71125 48.93875 71.4225 49.9375 71.125 C53.10664203 70.35785318 53.10664203 70.35785318 54 68 C50.535 68.495 50.535 68.495 47 69 C47.495 67.515 47.495 67.515 48 66 C50.33333333 65 52.66666667 64 55 63 C55.33 62.01 55.66 61.02 56 60 C55.44570312 60.27714844 54.89140625 60.55429687 54.3203125 60.83984375 C51.546875 62.2265625 48.7734375 63.61328125 46 65 C46.90075162 61.31510701 47.37096065 59.45605353 50.5 57.1875 C51.325 56.795625 52.15 56.40375 53 56 C53.66 55.67 54.32 55.34 55 55 C55.33 54.01 55.66 53.02 56 52 C55.401875 52.33 54.80375 52.66 54.1875 53 C52 54 52 54 49 54 C45.42203468 62.22545737 45.42203468 62.22545737 45 71 C45.78993004 72.50279373 46.62832764 73.9805972 47.5 75.4375 C49.90395144 79.48267608 50.65632314 82.21821711 50 87 C49 89.4375 49 89.4375 48 91 C47.34 91 46.68 91 46 91 C45.79375 91.598125 45.5875 92.19625 45.375 92.8125 C43.39531636 95.9619967 41.46892258 96.71521386 38 98 C32.64450971 98.78945474 28.58140427 98.05426951 24 95 C22.625 92.8125 22.625 92.8125 22 91 C21.34 91 20.68 91 20 91 C17.62961813 87.29627833 17.50325445 84.32878264 18 80 C18.80433905 78.51360318 19.66339972 77.05606795 20.5625 75.625 C23.05518456 71.47994098 23.44972972 68.81002814 22.59765625 64.078125 C21.76274794 61.17504513 20.47385114 58.62729986 19 56 C19 55.34 19 54.68 19 54 C18.21625 53.855625 17.4325 53.71125 16.625 53.5625 C14 53 14 53 12 52 C12.33 52.99 12.66 53.98 13 55 C13.94875 55.45375 14.8975 55.9075 15.875 56.375 C19.34044347 58.17703061 20.45667101 59.45942174 22 63 C21.67 63.66 21.34 64.32 21 65 C20.62875 64.54625 20.2575 64.0925 19.875 63.625 C17.45735315 61.52970606 15.04569398 60.87986715 12 60 C12.33 60.99 12.66 61.98 13 63 C14.155 63.495 15.31 63.99 16.5 64.5 C17.655 64.995 18.81 65.49 20 66 C20.33 66.99 20.66 67.98 21 69 C17.535 68.505 17.535 68.505 14 68 C15.66954819 71.22404978 15.66954819 71.22404978 18.625 71.6875 C19.40875 71.790625 20.1925 71.89375 21 72 C20.01 74.31 19.02 76.62 18 79 C10.970478 70.71520622 8.82941439 63.99403907 9 53.3125 C9.05438208 48.21341032 9.03334334 43.2552127 8.375 38.1875 C7.92237901 34.59753353 8.16400986 32.23998261 10 29 C9.278125 28.773125 8.55625 28.54625 7.8125 28.3125 C3.43374953 26.26908312 0.90462205 23.31014228 -1.8125 19.375 C-3.86895484 13.53033889 -4.16288479 7.47113019 -1.5 1.8125 C-1.005 1.214375 -0.51 0.61625 0 0 Z " fill="#1B1B1A" transform="translate(16,1)"/>
<path d="M0 0 C4.64547882 0.71626325 6.52988555 3.32587066 9.44921875 6.7890625 C11.5787071 9.82505849 12.32059578 12.37651085 13 16 C14.98 15.34 16.96 14.68 19 14 C18.01 10.37 17.02 6.74 16 3 C20 2 20 2 21 2 C22.34136367 1.34964186 23.67532254 0.6837045 25 0 C25.33 0.66 25.66 1.32 26 2 C26.33 1.34 26.66 0.68 27 0 C28.32 0 29.64 0 31 0 C31.33 0.66 31.66 1.32 32 2 C32.33 1.34 32.66 0.68 33 0 C34.32 0.66 35.64 1.32 37 2 C37 2.66 37 3.32 37 4 C37.33 3.34 37.66 2.68 38 2 C39.32 2.33 40.64 2.66 42 3 C41.01 6.63 40.02 10.26 39 14 C41.475 14.99 41.475 14.99 44 16 C44 16.66 44 17.32 44 18 C43.01 18 42.02 18 41 18 C41.62648437 18.74765625 42.25296875 19.4953125 42.8984375 20.265625 C43.71570313 21.25046875 44.53296875 22.2353125 45.375 23.25 C46.59316406 24.71179687 46.59316406 24.71179687 47.8359375 26.203125 C49.57851757 28.4552682 50.876416 30.40711386 52 33 C51.34 33.66 50.68 34.32 50 35 C50 34.34 50 33.68 50 33 C49.43410156 32.77957031 48.86820313 32.55914062 48.28515625 32.33203125 C45.28351669 30.58235759 43.60353906 28.39596509 41.4375 25.6875 C40.67308594 24.74261719 39.90867188 23.79773438 39.12109375 22.82421875 C37 20 37 20 35.34765625 17.20703125 C34.19127236 14.8746768 34.19127236 14.8746768 32 14 C36.01711389 21.70707421 36.01711389 21.70707421 40.8125 28.9375 C42.74166837 31.63833572 43.37788412 32.90279946 44 36 C42.68 36.99 41.36 37.98 40 39 C39.69707031 38.38253906 39.39414062 37.76507813 39.08203125 37.12890625 C36.5093282 31.92808807 33.83073159 26.83141443 30.91796875 21.8125 C30 20 30 20 30 18 C29.34 18 28.68 18 28 18 C27.690625 19.175625 27.690625 19.175625 27.375 20.375 C25.82940899 24.44973993 23.75885055 27.861619 21.4375 31.53515625 C20.02055798 33.96474977 18.97640489 36.36652336 18 39 C16.68 37.68 15.36 36.36 14 35 C16.11883934 30.40918143 18.72859849 26.36914998 21.5703125 22.19140625 C23.29829606 19.54277571 24.67620982 16.86821205 26 14 C23.12579877 16.71604715 23.12579877 16.71604715 21 20 C18.9375 20.625 18.9375 20.625 17 21 C16.67 20.01 16.34 19.02 16 18 C15.29875 18.495 14.5975 18.99 13.875 19.5 C10.52678113 21.2468968 8.7241837 21.55466566 5 21 C2.69724444 19.1329009 1.32176129 17.64352259 0 15 C-0.039992 13.00039988 -0.04346799 10.99952758 0 9 C3.36720387 10.39332574 4.9859524 11.9789286 7 15 C5.8182776 9.41367593 4.46746889 7.40938415 0 4 C0 2.68 0 1.36 0 0 Z " fill="#1E1E1B" transform="translate(21,4)"/>
<path d="M0 0 C0.66 0 1.32 0 2 0 C0.71826249 4.99877629 -1.64155019 8.56803695 -4.53515625 12.7421875 C-6.46445097 15.71587376 -7.73461503 18.69593925 -9 22 C-8.34 22.66 -7.68 23.32 -7 24 C-5.35347636 21.04205036 -3.70789892 18.0835754 -2.0625 15.125 C-1.59392578 14.28324219 -1.12535156 13.44148438 -0.64257812 12.57421875 C0.0293457 11.36572266 0.0293457 11.36572266 0.71484375 10.1328125 C1.33540649 9.01737061 1.33540649 9.01737061 1.96850586 7.87939453 C2.67082934 6.59975283 3.3471997 5.3056006 4 4 C4.66 4 5.32 4 6 4 C6.45890625 4.85722656 6.9178125 5.71445312 7.390625 6.59765625 C10.5253997 12.43913767 13.66752338 18.26814022 17 24 C17.66 23.01 18.32 22.02 19 21 C16.17949054 15.81506345 13.27650049 10.74648967 10.015625 5.82421875 C8.94200028 3.89582358 8.43764569 2.15492934 8 0 C11.45349879 1.41245882 12.87850471 2.90234056 14.8125 6.0625 C17.51233972 10.32976586 20.49155499 14.23963566 23.6796875 18.15234375 C25 20 25 20 25 22 C25.99 22 26.98 22 28 22 C28 22.66 28 23.32 28 24 C26.741875 24.226875 25.48375 24.45375 24.1875 24.6875 C21.05069661 25.47447188 20.20987109 25.74950869 18.0625 28.3125 C17.04291254 30.89145651 16.39170929 33.25803499 16 36 C16.391875 35.195625 16.78375 34.39125 17.1875 33.5625 C19 31 19 31 21.6875 30.1875 C22.450625 30.125625 23.21375 30.06375 24 30 C24.495 28.515 24.495 28.515 25 27 C25.66 27 26.32 27 27 27 C26.25 31.75 26.25 31.75 24 34 C23.03126953 34.14695312 23.03126953 34.14695312 22.04296875 34.296875 C19.7581213 34.84303459 19.7581213 34.84303459 18.55078125 37.328125 C18.14214844 38.29234375 17.73351563 39.2565625 17.3125 40.25 C16.89613281 41.20390625 16.47976562 42.1578125 16.05078125 43.140625 C15.08479198 45.76926494 14.45785726 48.24279365 14 51 C12.515 50.505 12.515 50.505 11 50 C11.144375 48.96359375 11.28875 47.9271875 11.4375 46.859375 C11.62514007 45.48960251 11.8126323 44.11980977 12 42.75 C12.14308594 41.72712891 12.14308594 41.72712891 12.2890625 40.68359375 C12.7345226 37.40628012 13 34.31615847 13 31 C11.45136655 35.281516 10.51847636 39.37066549 9.875 43.875 C9.70742188 45.02742188 9.53984375 46.17984375 9.3671875 47.3671875 C9.24601562 48.23601562 9.12484375 49.10484375 9 50 C8.67 50 8.34 50 8 50 C7.94548286 47.95863605 7.90697515 45.91684144 7.875 43.875 C7.85179688 42.73804688 7.82859375 41.60109375 7.8046875 40.4296875 C8.00458531 36.91948204 8.83276331 34.29519897 10 31 C10.92601156 24.3241027 9.64476352 19.10934216 6.875 13.03125 C6 11 6 11 6 9 C5.34 9 4.68 9 4 9 C3.79503906 9.61488281 3.59007813 10.22976562 3.37890625 10.86328125 C2.25260417 14.2421875 1.12630208 17.62109375 0 21 C-0.43380914 26.86146773 0.11096008 31.44400024 2 37 C2.57342611 40.9876788 3.07242233 44.96849025 3 49 C2.34 49.66 1.68 50.32 1 51 C-0.0537908 46.02013904 -0.71592436 41.00237067 -1.40234375 35.9609375 C-1.83963759 32.82984369 -1.83963759 32.82984369 -4 30 C-3.77183594 31.18078125 -3.54367188 32.3615625 -3.30859375 33.578125 C-3.01778954 35.13533463 -2.7274492 36.69263094 -2.4375 38.25 C-2.28603516 39.02730469 -2.13457031 39.80460937 -1.97851562 40.60546875 C-1.83994141 41.35957031 -1.70136719 42.11367188 -1.55859375 42.890625 C-1.42767334 43.58188477 -1.29675293 44.27314453 -1.16186523 44.98535156 C-0.98289638 47.21287942 -1.34793803 48.87506962 -2 51 C-4.90045459 49.5497727 -5.01216796 47.70271175 -6.0625 44.6875 C-6.40410156 43.72199219 -6.74570312 42.75648437 -7.09765625 41.76171875 C-8 39 -8 39 -8.4375 36.7109375 C-8.623125 36.14632812 -8.80875 35.58171875 -9 35 C-10.98248715 34.28293018 -12.98415349 33.61709587 -15 33 C-17 30 -17 30 -17 27 C-16.34 27 -15.68 27 -15 27 C-14.67 27.99 -14.34 28.98 -14 30 C-13.05125 30.2475 -12.1025 30.495 -11.125 30.75 C-8 32 -8 32 -6.9375 33.6796875 C-6.21009722 35.42125761 -5.59684012 37.20947965 -5 39 C-5.39782879 37.22483971 -5.81903661 35.45490837 -6.25 33.6875 C-6.59804688 32.20830078 -6.59804688 32.20830078 -6.953125 30.69921875 C-8.15458038 27.60143641 -9.14094387 26.62155422 -12 25 C-15.15118325 24.27954633 -15.15118325 24.27954633 -18 24 C-18 23.34 -18 22.68 -18 22 C-17.01 22 -16.02 22 -15 22 C-14.64035156 20.93072266 -14.64035156 20.93072266 -14.2734375 19.83984375 C-12.80600906 16.5673883 -10.95150654 14.28706331 -8.625 11.5625 C-6.0977772 8.56066232 -3.646198 5.64007855 -1.5625 2.3125 C-1.046875 1.549375 -0.53125 0.78625 0 0 Z " fill="#E9E9E4" transform="translate(45,18)"/>
<path d="M0 0 C25.41 0 50.82 0 77 0 C76.67 1.32 76.34 2.64 76 4 C75.01 3.3503125 75.01 3.3503125 74 2.6875 C70.49790424 1.88493639 69.97397879 2.22575129 67 4 C60.90748931 8.24525227 57.6220746 13.09980368 55 20 C53.02 19.34 51.04 18.68 49 18 C49.46800711 13.94393835 49.87953208 10.53411321 52 7 C50.68 6.67 49.36 6.34 48 6 C47.67 7.65 47.34 9.3 47 11 C46.67 11 46.34 11 46 11 C46.061875 10.21625 46.12375 9.4325 46.1875 8.625 C46.125625 7.75875 46.06375 6.8925 46 6 C45.01 5.34 44.02 4.68 43 4 C42.67 6.64 42.34 9.28 42 12 C41.67 12 41.34 12 41 12 C41 9.36 41 6.72 41 4 C39.68 4 38.36 4 37 4 C37 6.97 37 9.94 37 13 C36.67 13 36.34 13 36 13 C35.505 8.545 35.505 8.545 35 4 C31.87525373 5.63473516 31.87525373 5.63473516 31.3125 8.125 C31.209375 8.74375 31.10625 9.3625 31 10 C30.67 8.68 30.34 7.36 30 6 C28.68 6.33 27.36 6.66 26 7 C26.495 8.0725 26.99 9.145 27.5 10.25 C28.88653911 13.25416808 29 14.45934895 29 18 C27.02 18.66 25.04 19.32 23 20 C22.58041016 19.02160156 22.58041016 19.02160156 22.15234375 18.0234375 C18.78377956 10.67975093 15.3095596 5.82327521 7.75 2.625 C4.982455 1.88918945 4.982455 1.88918945 2 2 C1.34 1.34 0.68 0.68 0 0 Z " fill="#F6F6F5" transform="translate(11,0)"/>
<path d="M0 0 C2.32066258 2.05289382 2.57714599 4.03407254 2.93359375 7.0390625 C3.22559635 13.88785081 2.49346752 18.16455303 -1.71484375 23.65625 C-3.73563343 25.82443845 -5.63226301 27.29469292 -8.375 28.4375 C-9.035 28.4375 -9.695 28.4375 -10.375 28.4375 C-10.024375 29.05625 -9.67375 29.675 -9.3125 30.3125 C-7.96396565 34.80761449 -8.71540134 38.84704987 -9.375 43.4375 C-9.705 43.4375 -10.035 43.4375 -10.375 43.4375 C-10.375 41.7875 -10.375 40.1375 -10.375 38.4375 C-11.695 38.4375 -13.015 38.4375 -14.375 38.4375 C-14.87 36.9525 -14.87 36.9525 -15.375 35.4375 C-13.89 34.9425 -13.89 34.9425 -12.375 34.4375 C-13.00148438 33.68984375 -13.62796875 32.9421875 -14.2734375 32.171875 C-15.49933594 30.69460937 -15.49933594 30.69460937 -16.75 29.1875 C-17.56210938 28.21296875 -18.37421875 27.2384375 -19.2109375 26.234375 C-20.95351757 23.9822318 -22.251416 22.03038614 -23.375 19.4375 C-22.055 19.7675 -20.735 20.0975 -19.375 20.4375 C-19.23964844 19.880625 -19.10429688 19.32375 -18.96484375 18.75 C-16.75364716 10.9115067 -12.57514323 5.24132866 -5.6875 0.8125 C-2.375 -0.5625 -2.375 -0.5625 0 0 Z " fill="#282923" transform="translate(84.375,1.5625)"/>
<path d="M0 0 C1.98 0.66 3.96 1.32 6 2 C5.67 3.65 5.34 5.3 5 7 C5.598125 7.2475 6.19625 7.495 6.8125 7.75 C9.46807354 9.2674706 10.51460751 10.31214692 12 13 C12.53382712 15.6794015 12.77233083 18.26796991 13 21 C12.34 20.01 11.68 19.02 11 18 C8.45954713 14.46321928 8.45954713 14.46321928 5 12 C6.03913703 17.21262363 6.03913703 17.21262363 8.1875 22 C11.18106289 23.65162091 13.66289514 23.3512742 17 23 C19.40083438 21.64114884 19.40083438 21.64114884 21 20 C23.51083114 21.25541557 23.87125446 22.50063488 25 25 C24.37351562 25.67546875 23.74703125 26.3509375 23.1015625 27.046875 C22.28429687 27.93890625 21.46703125 28.8309375 20.625 29.75 C19.81289063 30.63171875 19.00078125 31.5134375 18.1640625 32.421875 C16.3374152 34.59802521 15.10212006 36.40820119 14 39 C13.01 39 12.02 39 11 39 C10.67 39.99 10.34 40.98 10 42 C7.19458901 37.79188352 8.14430518 35.90079759 9 31 C9.33 30.34 9.66 29.68 10 29 C9.278125 28.773125 8.55625 28.54625 7.8125 28.3125 C3.43374953 26.26908312 0.90462205 23.31014228 -1.8125 19.375 C-3.86895484 13.53033889 -4.16288479 7.47113019 -1.5 1.8125 C-1.005 1.214375 -0.51 0.61625 0 0 Z " fill="#1F1F1D" transform="translate(16,1)"/>
<path d="M0 0 C4.48002741 0.37333562 5.79779277 0.95026399 8.75 4.3125 C10.86172136 8.77330674 12.3509828 12.48762033 10.75 17.3125 C10.51925781 16.67441406 10.28851563 16.03632812 10.05078125 15.37890625 C9.07549888 12.90793393 8.10161692 10.60118041 6.75 8.3125 C4.1412295 7.1011547 4.1412295 7.1011547 1.75 7.3125 C1.42 5.9925 1.09 4.6725 0.75 3.3125 C0.09 3.3125 -0.57 3.3125 -1.25 3.3125 C-0.09274976 6.29553591 -0.09274976 6.29553591 1.75 9.3125 C2.9565625 9.745625 2.9565625 9.745625 4.1875 10.1875 C7.7160755 11.73663071 8.47803478 13.88863089 10.1484375 17.2421875 C10.85094925 19.65992275 10.56142566 20.96252698 9.75 23.3125 C9.07845067 22.02336513 8.41291141 20.73109796 7.75 19.4375 C7.37875 18.71820313 7.0075 17.99890625 6.625 17.2578125 C5.75 15.3125 5.75 15.3125 5.75 13.3125 C4.96625 13.168125 4.1825 13.02375 3.375 12.875 C0.75 12.3125 0.75 12.3125 -1.25 11.3125 C-0.92 12.3025 -0.59 13.2925 -0.25 14.3125 C0.69875 14.76625 1.6475 15.22 2.625 15.6875 C6.09044347 17.48953061 7.20667101 18.77192174 8.75 22.3125 C8.42 22.9725 8.09 23.6325 7.75 24.3125 C7.37875 23.85875 7.0075 23.405 6.625 22.9375 C4.20735315 20.84220606 1.79569398 20.19236715 -1.25 19.3125 C-0.92 20.3025 -0.59 21.2925 -0.25 22.3125 C0.905 22.8075 2.06 23.3025 3.25 23.8125 C4.405 24.3075 5.56 24.8025 6.75 25.3125 C7.08 26.3025 7.41 27.2925 7.75 28.3125 C5.44 27.9825 3.13 27.6525 0.75 27.3125 C2.41954819 30.53654978 2.41954819 30.53654978 5.375 31 C6.15875 31.103125 6.9425 31.20625 7.75 31.3125 C6.76 33.6225 5.77 35.9325 4.75 38.3125 C-0.97368787 31.56672501 -4.3702294 25.46870865 -4.3828125 16.484375 C-4.38474609 15.16179688 -4.38474609 15.16179688 -4.38671875 13.8125 C-4.38285156 12.905 -4.37898438 11.9975 -4.375 11.0625 C-4.37886719 10.13953125 -4.38273437 9.2165625 -4.38671875 8.265625 C-4.38542969 7.3890625 -4.38414063 6.5125 -4.3828125 5.609375 C-4.38168457 4.80854492 -4.38055664 4.00771484 -4.37939453 3.18261719 C-4.15331312 -0.08489905 -3.35662071 0.32275199 0 0 Z " fill="#181815" transform="translate(29.25,41.6875)"/>
<path d="M0 0 C0.33 0 0.66 0 1 0 C2.5130645 15.4818921 3.07265638 26.83926921 -6 40 C-6.28875 39.401875 -6.5775 38.80375 -6.875 38.1875 C-8.04742026 35.80672208 -8.04742026 35.80672208 -10 33 C-8.5459375 32.566875 -8.5459375 32.566875 -7.0625 32.125 C-3.89335797 31.35785318 -3.89335797 31.35785318 -3 29 C-5.31 29.33 -7.62 29.66 -10 30 C-9.67 29.01 -9.34 28.02 -9 27 C-6.66666667 26 -4.33333333 25 -2 24 C-1.67 23.01 -1.34 22.02 -1 21 C-1.83144531 21.41572266 -1.83144531 21.41572266 -2.6796875 21.83984375 C-5.453125 23.2265625 -8.2265625 24.61328125 -11 26 C-9.64543524 20.45859873 -9.64543524 20.45859873 -6.625 18.3125 C-5.325625 17.6628125 -5.325625 17.6628125 -4 17 C-2.65368175 16.01755155 -1.31558703 15.02323436 0 14 C-0.66 13.01 -1.32 12.02 -2 11 C-1.625 7.8125 -1.625 7.8125 -1 5 C-1.66 5 -2.32 5 -3 5 C-3.33 6.32 -3.66 7.64 -4 9 C-4.7425 9 -5.485 9 -6.25 9 C-9.56830714 10.20665714 -9.80059811 10.98992519 -11.3125 14.0625 C-11.89266121 15.36728944 -12.46085342 16.67773548 -13 18 C-14.20460211 14.38619367 -13.69608056 13.45637968 -12.3125 10 C-11.97863281 9.13375 -11.64476562 8.2675 -11.30078125 7.375 C-9.84329552 4.71388492 -8.60934329 3.52005387 -6 2 C-2.75 1.8125 -2.75 1.8125 0 2 C0 1.34 0 0.68 0 0 Z " fill="#191A17" transform="translate(73,40)"/>
<path d="M0 0 C2.32066258 2.05289382 2.57714599 4.03407254 2.93359375 7.0390625 C3.23128522 14.02128064 2.32031719 18.19513236 -1.76953125 23.890625 C-3.375 25.4375 -3.375 25.4375 -6.375 25.4375 C-5.76979338 22.0483429 -4.46199255 20.13319871 -2.375 17.4375 C-1.37003148 14.42259443 -1.27164697 12.39568308 -1.3125 9.25 C-1.32152344 8.34894531 -1.33054687 7.44789062 -1.33984375 6.51953125 C-1.35144531 5.83246094 -1.36304687 5.14539063 -1.375 4.4375 C-7.63398801 7.7974318 -10.77905498 10.39553358 -12.98828125 17.375 C-13.48545533 19.05253975 -13.93472548 20.74413647 -14.375 22.4375 C-15.695 22.1075 -17.015 21.7775 -18.375 21.4375 C-17.5822592 13.54244872 -15.36413836 8.70214581 -9.375 3.4375 C-3.7833225 -0.89605007 -3.7833225 -0.89605007 0 0 Z " fill="#1B1B18" transform="translate(84.375,1.5625)"/>
<path d="M0 0 C0.66 0 1.32 0 2 0 C6.08626343 8.49359042 8.91121389 15.75670129 6.0625 25.0625 C5.711875 26.031875 5.36125 27.00125 5 28 C4.70799084 30.34807363 4.50433138 32.68632864 4.34375 35.046875 C4 37 4 37 2 39 C2 29.1 2 19.2 2 9 C1.34 9 0.68 9 0 9 C-0.04898438 9.60328125 -0.09796875 10.2065625 -0.1484375 10.828125 C-0.22320312 11.62734375 -0.29796875 12.4265625 -0.375 13.25 C-0.44460937 14.03890625 -0.51421875 14.8278125 -0.5859375 15.640625 C-1.01507113 18.085877 -1.78600638 19.84836903 -3 22 C-3.66 22 -4.32 22 -5 22 C-5.83507383 13.61214729 -3.61478507 7.51358897 0 0 Z " fill="#1B1C17" transform="translate(49,27)"/>
<path d="M0 0 C1.32 0.33 2.64 0.66 4 1 C3.01 4.63 2.02 8.26 1 12 C3.475 12.99 3.475 12.99 6 14 C6 14.66 6 15.32 6 16 C5.01 16 4.02 16 3 16 C3.62648438 16.74765625 4.25296875 17.4953125 4.8984375 18.265625 C5.71570313 19.25046875 6.53296875 20.2353125 7.375 21.25 C8.18710938 22.22453125 8.99921875 23.1990625 9.8359375 24.203125 C11.57851757 26.4552682 12.876416 28.40711386 14 31 C13.34 31.66 12.68 32.32 12 33 C12 32.34 12 31.68 12 31 C11.43667969 30.77957031 10.87335938 30.55914062 10.29296875 30.33203125 C7.27331541 28.57785444 5.52086326 26.38498834 3.3125 23.6875 C2.13107422 22.27017578 2.13107422 22.27017578 0.92578125 20.82421875 C-3.10998494 14.90564075 -2.13619768 8.81718608 -1 2 C-0.67 1.34 -0.34 0.68 0 0 Z " fill="#191A16" transform="translate(59,6)"/>
<path d="M0 0 C2.51083114 1.25541557 2.87125446 2.50063488 4 5 C3.37351562 5.67546875 2.74703125 6.3509375 2.1015625 7.046875 C1.28429688 7.93890625 0.46703125 8.8309375 -0.375 9.75 C-1.18710937 10.63171875 -1.99921875 11.5134375 -2.8359375 12.421875 C-4.6625848 14.59802521 -5.89787994 16.40820119 -7 19 C-7.99 19 -8.98 19 -10 19 C-10.33 19.99 -10.66 20.98 -11 22 C-13.18038095 18.72942857 -13.63246755 17.79480531 -13 14 C-10.75 11.5625 -10.75 11.5625 -8 9 C-7.319375 7.96875 -6.63875 6.9375 -5.9375 5.875 C-4.13580667 3.20151957 -2.68008528 1.72291197 0 0 Z " fill="#292A25" transform="translate(37,21)"/>
<path d="M0 0 C4.46835294 1.03915185 7.18962944 2.52359068 10.03125 6.203125 C11.74423946 9.38044416 11.81520698 12.42733502 12 16 C11.34 15.01 10.68 14.02 10 13 C7.45954713 9.46321928 7.45954713 9.46321928 4 7 C5.17200539 13.1796648 6.66768274 16.43966604 11 21 C8.16157499 20.91651691 6.45950686 20.4276272 4.3671875 18.48046875 C-0.45969162 12.9423828 -1.23039572 9.25746513 -1 2 C-0.67 1.34 -0.34 0.68 0 0 Z " fill="#EFF0E9" transform="translate(17,6)"/>
<path d="M0 0 C1.60194777 3.20389553 1.3516761 6.51580157 1 10 C-0.84312029 15.22217416 -3.53339979 17.92921236 -8 21 C-8.99 20.67 -9.98 20.34 -11 20 C-10.21625 19.34 -9.4325 18.68 -8.625 18 C-5.3549438 14.26279291 -4.89790231 11.81602145 -4 7 C-7.73884332 9.65654657 -9.64978174 11.58110387 -11 16 C-11.33 16 -11.66 16 -12 16 C-11.6636509 9.4972508 -10.6832792 6.57436573 -6 2 C-3.73850954 0.57849171 -2.64756184 0 0 0 Z " fill="#F1F2EA" transform="translate(83,6)"/>
<path d="M0 0 C6.12605042 0.9424693 6.12605042 0.9424693 8.3203125 3.59765625 C10.88077759 8.36770789 12.45686371 13.55651749 12 19 C10.94087251 21.67983886 9.67360323 23.61638328 8 26 C7.34 25.01 6.68 24.02 6 23 C6.66 22.34 7.32 21.68 8 21 C7.195625 20.731875 6.39125 20.46375 5.5625 20.1875 C4.716875 19.795625 3.87125 19.40375 3 19 C2.67 18.01 2.34 17.02 2 16 C4.31 16.33 6.62 16.66 9 17 C6.22719294 13.91910327 3.93673644 12.31224548 0 11 C0 10.01 0 9.02 0 8 C6.75 9.875 6.75 9.875 9 11 C8.43923199 8.50995496 8.43923199 8.50995496 7 6 C5.00827818 5.30899447 3.00838196 4.64097297 1 4 C0.125 1.875 0.125 1.875 0 0 Z " fill="#DDDED8" transform="translate(28,53)"/>
<path d="M0 0 C-0.125 1.8125 -0.125 1.8125 -1 4 C-3 5 -5 6 -7 7 C-7.96044102 9.07690578 -7.96044102 9.07690578 -8 11 C-6.576875 10.2575 -6.576875 10.2575 -5.125 9.5 C-2 8 -2 8 0 8 C-0.0625 9.8125 -0.0625 9.8125 -1 12 C-3.30252483 13.06902939 -5.6372026 14.07175817 -8 15 C-8.33 15.66 -8.66 16.32 -9 17 C-5.535 16.505 -5.535 16.505 -2 16 C-2.75 17.9375 -2.75 17.9375 -4 20 C-6.125 20.75 -6.125 20.75 -8 21 C-7.67 21.66 -7.34 22.32 -7 23 C-7.66 23.66 -8.32 24.32 -9 25 C-12.09509256 20.29545931 -12.3309544 16.86744914 -11.57421875 11.47265625 C-10.67668529 7.60776725 -9.3939887 5.19198494 -7 2 C-4.45173275 0.60452031 -2.88102539 0 0 0 Z " fill="#E4E5DF" transform="translate(72,53)"/>
<path d="M0 0 C3.45349879 1.41245882 4.87850471 2.90234056 6.8125 6.0625 C9.51233972 10.32976586 12.49155499 14.23963566 15.6796875 18.15234375 C17 20 17 20 17 22 C17.99 22 18.98 22 20 22 C20 22.66 20 23.32 20 24 C17.36 24 14.72 24 12 24 C11.67128906 23.18208984 11.67128906 23.18208984 11.3359375 22.34765625 C9.15210162 17.15438799 6.53784269 12.70598569 3.328125 8.0859375 C1.69130896 5.51517349 0.75510296 2.94490156 0 0 Z " fill="#E6E6E0" transform="translate(53,18)"/>
<path d="M0 0 C2.625 -0.1875 2.625 -0.1875 5 0 C7.09350689 3.4019487 7.17942163 6.05272412 7 10 C5.68 10 4.36 10 3 10 C2.67 10.99 2.34 11.98 2 13 C1.01 12.67 0.02 12.34 -1 12 C-2.50934217 8.98131566 -2.17510672 6.32702771 -2 3 C-1.34 2.01 -0.68 1.02 0 0 Z " fill="#151514" transform="translate(36,78)"/>
<path d="M0 0 C0.66 0 1.32 0 2 0 C5.09721227 9.29163682 2.82160992 21.34608349 2 31 C1.34 31 0.68 31 0 31 C-2.10169492 6.30508475 -2.10169492 6.30508475 0 0 Z " fill="#EBECE7" transform="translate(49,36)"/>
<path d="M0 0 C1.32 0.33 2.64 0.66 4 1 C0.66666667 7.66666667 -2.66666667 14.33333333 -6 21 C-7.32 19.68 -8.64 18.36 -10 17 C-7.84746034 12.33616407 -5.20283132 8.19220104 -2.3046875 3.953125 C-0.96805941 2.04024387 -0.96805941 2.04024387 0 0 Z " fill="#191A15" transform="translate(45,22)"/>
<path d="M0 0 C2.25 0.0625 2.25 0.0625 5 1 C7.0898813 3.65742095 9 6.53550551 9 10 C8.34 10 7.68 10 7 10 C6.34 11.65 5.68 13.3 5 15 C3.35 15 1.7 15 0 15 C-0.5497272 9.36529617 1.04952165 6.61012242 4 2 C3.34 2 2.68 2 2 2 C1.67 2.66 1.34 3.32 1 4 C0.67 2.68 0.34 1.36 0 0 Z " fill="#292A27" transform="translate(57,73)"/>
<path d="M0 0 C6.64615385 1.47692308 6.64615385 1.47692308 8.4375 4.125 C8.7159375 5.053125 8.7159375 5.053125 9 6 C6.69 5.67 4.38 5.34 2 5 C3.66954819 8.22404978 3.66954819 8.22404978 6.625 8.6875 C7.40875 8.790625 8.1925 8.89375 9 9 C8.01 11.31 7.02 13.62 6 16 C2.48901975 11.98745115 0.23462006 7.79016959 -2 3 C-1.34 2.01 -0.68 1.02 0 0 Z " fill="#242422" transform="translate(28,64)"/>
<path d="M0 0 C0.33 1.32 0.66 2.64 1 4 C1.66 4 2.32 4 3 4 C3.144375 4.78375 3.28875 5.5675 3.4375 6.375 C3.87798925 8.96421018 3.87798925 8.96421018 5 11 C5.66 11 6.32 11 7 11 C7 11.66 7 12.32 7 13 C7.99 13.33 8.98 13.66 10 14 C8.35 14.33 6.7 14.66 5 15 C5.33 14.01 5.66 13.02 6 12 C4.02 12.33 2.04 12.66 0 13 C-0.6708712 11.3767313 -1.33657029 9.75132422 -2 8.125 C-2.37125 7.22007813 -2.7425 6.31515625 -3.125 5.3828125 C-4 3 -4 3 -4 1 C-2 0 -2 0 0 0 Z " fill="#393A37" transform="translate(41,6)"/>
<path d="M0 0 C1.32 0.66 2.64 1.32 4 2 C3.98839844 2.77085938 3.97679687 3.54171875 3.96484375 4.3359375 C3.95582031 5.33882812 3.94679688 6.34171875 3.9375 7.375 C3.92589844 8.37273438 3.91429687 9.37046875 3.90234375 10.3984375 C3.81993398 12.98432453 3.81993398 12.98432453 5 15 C1.23375329 16.25541557 -0.37188934 15.37061958 -4 14 C-2.68 13.34 -1.36 12.68 0 12 C0 11.01 0 10.02 0 9 C-0.99 9.495 -0.99 9.495 -2 10 C-1.34 6.7 -0.68 3.4 0 0 Z " fill="#3A3A37" transform="translate(54,4)"/>
<path d="M0 0 C0.33 0.66 0.66 1.32 1 2 C-0.47169811 5.73584906 -0.47169811 5.73584906 -3 7 C-2.34 7.66 -1.68 8.32 -1 9 C-1.375 11.625 -1.375 11.625 -2 14 C-2.66 13.67 -3.32 13.34 -4 13 C-4 12.34 -4 11.68 -4 11 C-4.99 11.33 -5.98 11.66 -7 12 C-7.66 11.34 -8.32 10.68 -9 10 C-8.01 9.67 -7.02 9.34 -6 9 C-6.66 7.35 -7.32 5.7 -8 4 C-5.62596029 1.62596029 -4.22523111 1.57888764 -1 1 C-0.67 0.67 -0.34 0.34 0 0 Z " fill="#161714" transform="translate(55,11)"/>
<path d="M0 0 C0.31924758 4.57588204 0.03616654 7.44035648 -3 11 C-5.6875 11.3125 -5.6875 11.3125 -8 11 C-5.46153846 -0 -5.46153846 -0 0 0 Z " fill="#1F2019" transform="translate(79,13)"/>
<path d="M0 0 C0.66 0 1.32 0 2 0 C3.1461973 2.1248044 4.29197292 4.24983431 5.4375 6.375 C5.76298828 6.97828125 6.08847656 7.5815625 6.42382812 8.203125 C8.88671875 12.7734375 8.88671875 12.7734375 10 15 C9.67 15.66 9.34 16.32 9 17 C8.01 17 7.02 17 6 17 C5.3291288 15.3767313 4.66342971 13.75132422 4 12.125 C3.62875 11.22007813 3.2575 10.31515625 2.875 9.3828125 C2 7 2 7 2 5 C1.34 5 0.68 5 0 5 C-0.33 4.01 -0.66 3.02 -1 2 C-0.67 1.34 -0.34 0.68 0 0 Z " fill="#E4E3DE" transform="translate(49,22)"/>
<path d="M0 0 C4.85493558 4.549844 5.41190371 10.26321461 5.98046875 16.65234375 C6.00407638 19.48998063 5.39741866 21.53396706 4 24 C3.01 24 2.02 24 1 24 C1.33 23.34 1.66 22.68 2 22 C3.04239682 18.87280954 2.97104316 17.70741726 2.44140625 14.55078125 C2.30283203 13.70322266 2.16425781 12.85566406 2.02148438 11.98242188 C1.87001953 11.10134766 1.71855469 10.22027344 1.5625 9.3125 C1.41490234 8.41982422 1.26730469 7.52714844 1.11523438 6.60742188 C0.74992619 4.40378863 0.37795112 2.201494 0 0 Z " fill="#1F201B" transform="translate(40,46)"/>
<path d="M0 0 C2.99324263 1.0975223 3.84610901 1.67682892 5.25 4.625 C5.4975 5.40875 5.745 6.1925 6 7 C6.99 7 7.98 7 9 7 C9 7.66 9 8.32 9 9 C6.36 9 3.72 9 1 9 C-1.125 3.375 -1.125 3.375 0 0 Z " fill="#EAEAE5" transform="translate(64,33)"/>
<path d="M0 0 C0 1.98 0 3.96 0 6 C-0.33 6 -0.66 6 -1 6 C-1 4.35 -1 2.7 -1 1 C-1.99 1 -2.98 1 -4 1 C-4 1.66 -4 2.32 -4 3 C-3.34 3 -2.68 3 -2 3 C-2.33 3.66 -2.66 4.32 -3 5 C-5.32671854 5.68939809 -7.66067594 6.35466922 -10 7 C-10.99 7.66 -11.98 8.32 -13 9 C-12.09924838 5.31510701 -11.62903935 3.45605353 -8.5 1.1875 C-7.675 0.795625 -6.85 0.40375 -6 0 C-3.50907189 -1.24546405 -2.58919267 -0.7767578 0 0 Z " fill="#262723" transform="translate(75,57)"/>
<path d="M0 0 C0.66 0 1.32 0 2 0 C2.33 0.99 2.66 1.98 3 3 C4.3921875 3.2784375 4.3921875 3.2784375 5.8125 3.5625 C9.63917238 5.28825421 9.89046997 6.22979045 11.4375 10 C12.43359375 12.6875 12.43359375 12.6875 13 15 C12.67 15.66 12.34 16.32 12 17 C8 10.25 8 10.25 8 8 C7.05125 7.731875 6.1025 7.46375 5.125 7.1875 C2 6 2 6 0 3 C0 2.01 0 1.02 0 0 Z " fill="#E5E6E2" transform="translate(28,45)"/>
<path d="M0 0 C0.66 0 1.32 0 2 0 C2.66 1.98 3.32 3.96 4 6 C3.2575 6 2.515 6 1.75 6 C-1.56830714 7.20665714 -1.80059811 7.98992519 -3.3125 11.0625 C-3.89266121 12.36728944 -4.46085342 13.67773548 -5 15 C-6.21940083 11.3417975 -5.63709904 10.41551324 -4.1875 6.9375 C-3.83042969 6.05964844 -3.47335938 5.18179688 -3.10546875 4.27734375 C-2 2 -2 2 0 0 Z " fill="#20201B" transform="translate(65,43)"/>
<path d="M0 0 C0.825 0.185625 1.65 0.37125 2.5 0.5625 C6.18661198 2.68230189 7.82446131 5.95431488 9 10 C8.6015625 12.2578125 8.6015625 12.2578125 8 14 C7.32845067 12.71086513 6.66291141 11.41859796 6 10.125 C5.62875 9.40570313 5.2575 8.68640625 4.875 7.9453125 C4 6 4 6 4 4 C1.03 3.67 -1.94 3.34 -5 3 C-5.33 2.01 -5.66 1.02 -6 0 C-3.43417606 -1.28291197 -2.6963913 -0.84743727 0 0 Z " fill="#21221C" transform="translate(31,51)"/>
<path d="M0 0 C1.1171875 1.734375 1.1171875 1.734375 2 4 C1.3203125 6.140625 1.3203125 6.140625 0.125 8.25 C-0.26429687 8.95640625 -0.65359375 9.6628125 -1.0546875 10.390625 C-1.36664063 10.92171875 -1.67859375 11.4528125 -2 12 C-3.32 10.68 -4.64 9.36 -6 8 C-3.375 2.25 -3.375 2.25 0 0 Z " fill="#252620" transform="translate(41,31)"/>
<path d="M0 0 C1.69193359 3.38386718 0.24788179 7.03184949 -0.4375 10.625 C-0.58509766 11.42679688 -0.73269531 12.22859375 -0.88476562 13.0546875 C-1.2506507 15.03754855 -1.62457121 17.01892377 -2 19 C-2.99 18.67 -3.98 18.34 -5 18 C-3.25740319 5.33029613 -3.25740319 5.33029613 0 0 Z " fill="#262621" transform="translate(59,46)"/>
<path d="M0 0 C1.32 0.66 2.64 1.32 4 2 C3.401875 2.309375 2.80375 2.61875 2.1875 2.9375 C-1.70324207 6.60591395 -2.8669335 11.82658046 -3.1875 17.0625 C-3.125625 17.701875 -3.06375 18.34125 -3 19 C-3.99 18.67 -4.98 18.34 -6 18 C-5.34 13.38 -4.68 8.76 -4 4 C-3.01 4 -2.02 4 -1 4 C-0.67 2.68 -0.34 1.36 0 0 Z " fill="#E1E0DA" transform="translate(63,41)"/>
<path d="M0 0 C0.33 0 0.66 0 1 0 C1 1.98 1 3.96 1 6 C2.65 5.34 4.3 4.68 6 4 C6.33 4.99 6.66 5.98 7 7 C7.66 6.67 8.32 6.34 9 6 C8.67 7.65 8.34 9.3 8 11 C3.545 10.01 3.545 10.01 -1 9 C-1.09765625 2.84765625 -1.09765625 2.84765625 -1 1 C-0.67 0.67 -0.34 0.34 0 0 Z " fill="#171716" transform="translate(40,64)"/>
<path d="M0 0 C1.28317892 3.84953676 1.06643637 6.94738135 1 11 C0.01 10.67 -0.98 10.34 -2 10 C-1.67 9.01 -1.34 8.02 -1 7 C-1.928125 7.33 -2.85625 7.66 -3.8125 8 C-7 9 -7 9 -10 9 C-10 8.34 -10 7.68 -10 7 C-8.68 7 -7.36 7 -6 7 C-6 5.02 -6 3.04 -6 1 C-5.34 1.33 -4.68 1.66 -4 2 C-3.67 2.99 -3.34 3.98 -3 5 C-2.34 5.33 -1.68 5.66 -1 6 C-1.020625 5.195625 -1.04125 4.39125 -1.0625 3.5625 C-1 1 -1 1 0 0 Z " fill="#10110E" transform="translate(60,63)"/>
<path d="M0 0 C1.53049073 1.94789729 2.88339324 3.75123891 3.9375 6 C5.24776703 8.46638501 6.96906818 10.10446364 9 12 C6.087425 11.91433603 4.43201976 11.42089045 2.33203125 9.375 C0.83908228 7.61608625 -0.60436262 5.83686981 -2 4 C-1.34 2.68 -0.68 1.36 0 0 Z " fill="#E7E8E1" transform="translate(19,15)"/>
<path d="M0 0 C2.31 0.33 4.62 0.66 7 1 C7 1.66 7 2.32 7 3 C7.66 3 8.32 3 9 3 C7.92598892 5.91517292 7.22189824 7.77810176 5 10 C4.67 9.01 4.34 8.02 4 7 C4.66 6.34 5.32 5.68 6 5 C5.195625 4.731875 4.39125 4.46375 3.5625 4.1875 C2.716875 3.795625 1.87125 3.40375 1 3 C0.67 2.01 0.34 1.02 0 0 Z " fill="#E7E8E4" transform="translate(30,69)"/>
<path d="M0 0 C0.66 0.33 1.32 0.66 2 1 C2.625 4.0625 2.625 4.0625 3 7 C1.02 7.66 -0.96 8.32 -3 9 C-4.25664978 6.09399739 -5 4.20395416 -5 1 C-3 2 -3 2 -2 4 C-1.34 2.68 -0.68 1.36 0 0 Z " fill="#F2F2EF" transform="translate(69,75)"/>
<path d="M0 0 C3.33049122 1.42630308 5.31738937 3.15014396 7.6875 5.875 C8.28949219 6.55304687 8.89148438 7.23109375 9.51171875 7.9296875 C11.00766194 10.01065834 11.5789756 11.49630826 12 14 C7.08630804 10.2562347 3.40480667 6.16757892 0 1 C0 0.67 0 0.34 0 0 Z " fill="#E0E0DB" transform="translate(61,21)"/>
<path d="M0 0 C0.66 0.33 1.32 0.66 2 1 C2 4.3 2 7.6 2 11 C0.02 11.99 0.02 11.99 -2 13 C-2 9.04 -2 5.08 -2 1 C-1.34 0.67 -0.68 0.34 0 0 Z " fill="#141413" transform="translate(85,5)"/>
<path d="M0 0 C0.66 0 1.32 0 2 0 C3.04976964 3.14930893 3.10131595 5.38814456 3.0625 8.6875 C3.05347656 9.68136719 3.04445312 10.67523438 3.03515625 11.69921875 C3.02355469 12.45847656 3.01195312 13.21773437 3 14 C2.67 13.34 2.34 12.68 2 12 C1.34 12 0.68 12 0 12 C0 8.04 0 4.08 0 0 Z " fill="#F2F3ED" transform="translate(49,36)"/>
<path d="M0 0 C0.66 0.33 1.32 0.66 2 1 C-3.445 7.435 -3.445 7.435 -9 14 C-9.33 13.34 -9.66 12.68 -10 12 C-9.09232898 10.55680308 -8.17343894 9.12065894 -7.25 7.6875 C-6.48429687 6.48673828 -6.48429687 6.48673828 -5.703125 5.26171875 C-3.99722239 2.99631139 -2.34191855 1.57315833 0 0 Z " fill="#E3E3DF" transform="translate(37,21)"/>
<path d="M0 0 C0.53625 0.391875 1.0725 0.78375 1.625 1.1875 C0.965 2.5075 0.305 3.8275 -0.375 5.1875 C-4.92884615 5.55673077 -4.92884615 5.55673077 -7.1875 3.6875 C-7.579375 3.1925 -7.97125 2.6975 -8.375 2.1875 C-2.95961538 -1.0125 -2.95961538 -1.0125 0 0 Z " fill="#282923" transform="translate(84.375,1.8125)"/>
<path d="M0 0 C4.85077588 1.11940982 7.777893 2.1334716 11 6 C10.67 6.99 10.34 7.98 10 9 C10 8.34 10 7.68 10 7 C9.36191406 6.82984375 8.72382812 6.6596875 8.06640625 6.484375 C7.24011719 6.24203125 6.41382813 5.9996875 5.5625 5.75 C4.73878906 5.51796875 3.91507813 5.2859375 3.06640625 5.046875 C1 4 1 4 0.21484375 1.890625 C0.14394531 1.26671875 0.07304687 0.6428125 0 0 Z " fill="#ECECE7" transform="translate(28,61)"/>
<path d="M0 0 C1.98 0.99 3.96 1.98 6 3 C5.67 3.99 5.34 4.98 5 6 C4.01 6 3.02 6 2 6 C1.67 6.99 1.34 7.98 1 9 C-1.14809171 5.77786243 -1.29386153 4.72224599 -1 1 C-0.67 0.67 -0.34 0.34 0 0 Z " fill="#292929" transform="translate(25,34)"/>
<path d="M0 0 C1.98 0.66 3.96 1.32 6 2 C5.67 3.32 5.34 4.64 5 6 C3.02 6 1.04 6 -1 6 C-1.625 4.125 -1.625 4.125 -2 2 C-1.34 1.34 -0.68 0.68 0 0 Z " fill="#272726" transform="translate(16,1)"/>
<path d="M0 0 C4.28202927 2.21484273 5.1437948 5.43138441 6.58203125 9.74609375 C7.0355237 12.19156236 6.78239025 13.663474 6 16 C5.32404685 14.58774074 4.65959941 13.16997095 4 11.75 C3.62875 10.96109375 3.2575 10.1721875 2.875 9.359375 C2 7 2 7 2 3 C1.01 2.67 0.02 2.34 -1 2 C-0.67 1.34 -0.34 0.68 0 0 Z " fill="#20211C" transform="translate(34,43)"/>
<path d="M0 0 C3.31832766 0.98652984 4.76548627 1.68731503 6.875 4.5 C7.24625 5.325 7.6175 6.15 8 7 C7.67 7.66 7.34 8.32 7 9 C6.62875 8.54625 6.2575 8.0925 5.875 7.625 C3.45735315 5.52970606 1.04569398 4.87986715 -2 4 C-1.34 3.67 -0.68 3.34 0 3 C0 2.01 0 1.02 0 0 Z " fill="#1F201B" transform="translate(30,57)"/>
<path d="M0 0 C0.66 0.33 1.32 0.66 2 1 C2 3.31 2 5.62 2 8 C1.34 8 0.68 8 0 8 C-0.99 8.495 -0.99 8.495 -2 9 C-2.33 7.02 -2.66 5.04 -3 3 C-2.01 2.67 -1.02 2.34 0 2 C0 1.34 0 0.68 0 0 Z " fill="#F7F8ED" transform="translate(19,9)"/>
<path d="M0 0 C-0.125 1.8125 -0.125 1.8125 -1 4 C-6.03571429 7 -6.03571429 7 -9 7 C-8.3125 4.625 -8.3125 4.625 -7 2 C-4.52858057 0.7025048 -2.79207427 0 0 0 Z " fill="#EBECE6" transform="translate(72,53)"/>
<path d="M0 0 C-0.33 2.31 -0.66 4.62 -1 7 C-2.65 7.33 -4.3 7.66 -6 8 C-5.40138258 5.64828869 -4.73075648 3.3140622 -4 1 C-2 0 -2 0 0 0 Z " fill="#F4F5EF" transform="translate(44,38)"/>
<path d="M0 0 C0.66 0.33 1.32 0.66 2 1 C1.01 3.31 0.02 5.62 -1 8 C-2.98 7.34 -4.96 6.68 -7 6 C-6.01 5.01 -5.02 4.02 -4 3 C-4 3.66 -4 4.32 -4 5 C-3.34 5 -2.68 5 -2 5 C-2 3.68 -2 2.36 -2 1 C-1.34 0.67 -0.68 0.34 0 0 Z " fill="#ECECE9" transform="translate(67,12)"/>
<path d="M0 0 C4.62 0 9.24 0 14 0 C13.67 1.32 13.34 2.64 13 4 C11.01432292 3.47916667 9.02864583 2.95833333 7.04296875 2.4375 C4.85929991 1.8952993 4.85929991 1.8952993 2 2 C1.34 1.34 0.68 0.68 0 0 Z " fill="#EFEFF0" transform="translate(11,0)"/>
<path d="M0 0 C1.98 0 3.96 0 6 0 C5.25 2.9375 5.25 2.9375 4 6 C1.875 6.875 1.875 6.875 0 7 C0 4.69 0 2.38 0 0 Z " fill="#151612" transform="translate(38,18)"/>
<path d="M0 0 C1.32 0.66 2.64 1.32 4 2 C4 3.32 4 4.64 4 6 C1.03 5.505 1.03 5.505 -2 5 C-2 4.34 -2 3.68 -2 3 C-2.99 2.67 -3.98 2.34 -5 2 C-3.35 2 -1.7 2 0 2 C0 1.34 0 0.68 0 0 Z " fill="#141414" transform="translate(43,75)"/>
<path d="M0 0 C2.31 0.33 4.62 0.66 7 1 C6.01 3.31 5.02 5.62 4 8 C0 3.375 0 3.375 0 0 Z " fill="#191916" transform="translate(30,72)"/>
<path d="M0 0 C0.66 0 1.32 0 2 0 C2 0.66 2 1.32 2 2 C2.66 2 3.32 2 4 2 C4 2.66 4 3.32 4 4 C4.66 4 5.32 4 6 4 C6 5.65 6 7.3 6 9 C5.01 9.33 4.02 9.66 3 10 C2.01 6.7 1.02 3.4 0 0 Z " fill="#1B1B1B" transform="translate(37,7)"/>
<path d="M0 0 C0.99 0 1.98 0 3 0 C3 0.66 3 1.32 3 2 C3.66 2.33 4.32 2.66 5 3 C5 3.99 5 4.98 5 6 C4.01 6.33 3.02 6.66 2 7 C1.01 6.34 0.02 5.68 -1 5 C-0.67 3.35 -0.34 1.7 0 0 Z " fill="#131310" transform="translate(31,43)"/>
<path d="M0 0 C1.32 0.66 2.64 1.32 4 2 C3.67 4.64 3.34 7.28 3 10 C2.67 10 2.34 10 2 10 C2 8.35 2 6.7 2 5 C0.68 5 -0.64 5 -2 5 C-2.33 4.01 -2.66 3.02 -3 2 C-2.01 1.67 -1.02 1.34 0 1 C0 0.67 0 0.34 0 0 Z " fill="#282928" transform="translate(72,35)"/>
<path d="M0 0 C-0.25 2.375 -0.25 2.375 -1 5 C-3.0625 6.3125 -3.0625 6.3125 -5 7 C-5 3 -5 3 -3.625 1.25 C-2 0 -2 0 0 0 Z " fill="#1B1B19" transform="translate(34,30)"/>
<path d="M0 0 C0.66 1.32 1.32 2.64 2 4 C2.66 4 3.32 4 4 4 C4 4.66 4 5.32 4 6 C3.34 6 2.68 6 2 6 C1.67 6.66 1.34 7.32 1 8 C0.34 8 -0.32 8 -1 8 C-1.93065133 5.39417629 -2.14917407 4.35801776 -1.0625 1.75 C-0.711875 1.1725 -0.36125 0.595 0 0 Z " fill="#EEEEEE" transform="translate(34,88)"/>
<path d="M0 0 C3 1 3 1 4 3 C4.039992 4.99960012 4.04346799 7.00047242 4 9 C2.35 9 0.7 9 -1 9 C-1.33 7.68 -1.66 6.36 -2 5 C-1.34 4.67 -0.68 4.34 0 4 C0 5.32 0 6.64 0 8 C0.99 8 1.98 8 3 8 C2.5359375 6.8553125 2.5359375 6.8553125 2.0625 5.6875 C1.32106407 3.81210323 0.63771783 1.91315348 0 0 Z " fill="#CFD0CF" transform="translate(39,79)"/>
<path d="M0 0 C0.33 0.66 0.66 1.32 1 2 C0.01 2.495 0.01 2.495 -1 3 C-0.67 3.66 -0.34 4.32 0 5 C-0.61875 5.28875 -1.2375 5.5775 -1.875 5.875 C-4.13325765 6.93720042 -4.13325765 6.93720042 -6 9 C-6.33 7.35 -6.66 5.7 -7 4 C-4.69 2.68 -2.38 1.36 0 0 Z " fill="#EBEBE7" transform="translate(81,26)"/>
<path d="M0 0 C2 3.75 2 3.75 2 6 C0.68 6 -0.64 6 -2 6 C-2.33 6.66 -2.66 7.32 -3 8 C-3.99 8 -4.98 8 -6 8 C-4.768606 4.30581799 -2.79208646 2.64890254 0 0 Z " fill="#252525" transform="translate(52,64)"/>
<path d="M0 0 C0.86625 0.556875 0.86625 0.556875 1.75 1.125 C-5 4.125 -5 4.125 -7.25 4.125 C-6.25 1.125 -6.25 1.125 -4.4375 -0.1875 C-2.25 -0.875 -2.25 -0.875 0 0 Z " fill="#151611" transform="translate(70.25,65.875)"/>
<path d="M0 0 C0.99 0.33 1.98 0.66 3 1 C2.67 1.99 2.34 2.98 2 4 C2.66 4.66 3.32 5.32 4 6 C3.67 6.99 3.34 7.98 3 9 C2.01 8.67 1.02 8.34 0 8 C-0.38063221 5.6739143 -0.71269945 3.33944736 -1 1 C-0.67 0.67 -0.34 0.34 0 0 Z " fill="#F5F5F0" transform="translate(64,33)"/>
<path d="M0 0 C2.4375 0.75 2.4375 0.75 5 2 C5.8125 4.125 5.8125 4.125 6 6 C4.33333333 6 2.66666667 6 1 6 C0 3 0 3 0 0 Z " fill="#E8E9E3" transform="translate(16,25)"/>
<path d="M0 0 C0.99 0.33 1.98 0.66 3 1 C2.34 1 1.68 1 1 1 C1.495 1.5775 1.99 2.155 2.5 2.75 C4 5 4 5 4 9 C3.01 9 2.02 9 1 9 C0.67 6.03 0.34 3.06 0 0 Z " fill="#242423" transform="translate(38,78)"/>
<path d="M0 0 C3.33773709 3.64116773 3.97864902 7.28607242 5 12 C1.67830089 9.31100548 0.43522725 5.94687492 -1 2 C-0.67 1.34 -0.34 0.68 0 0 Z " fill="#F3F3EE" transform="translate(36,50)"/>
<path d="M0 0 C0.99 0.33 1.98 0.66 3 1 C2.01 1.495 2.01 1.495 1 2 C1.66 4.31 2.32 6.62 3 9 C0.20127563 6.47211993 -1.45773019 4.79588866 -2 1 C-1.34 0.67 -0.68 0.34 0 0 Z " fill="#151613" transform="translate(73,28)"/>
<path d="M0 0 C0.99 0.33 1.98 0.66 3 1 C2.67 2.32 2.34 3.64 2 5 C0.35 5 -1.3 5 -3 5 C-2.625 3.0625 -2.625 3.0625 -2 1 C-1.34 0.67 -0.68 0.34 0 0 Z " fill="#171813" transform="translate(74,19)"/>
<path d="M0 0 C-0.78375 0.556875 -1.5675 1.11375 -2.375 1.6875 C-5.08704858 4.07668565 -5.96133543 5.60073413 -7 9 C-7.33 9 -7.66 9 -8 9 C-7.65357143 3.63035714 -7.65357143 3.63035714 -7 1 C-4.21424477 -1.32146269 -3.48083869 -1.16027956 0 0 Z " fill="#E5E6DC" transform="translate(79,13)"/>
<path d="M0 0 C1.32 0.66 2.64 1.32 4 2 C3.67 3.32 3.34 4.64 3 6 C1.68 6 0.36 6 -1 6 C-0.67 4.02 -0.34 2.04 0 0 Z " fill="#202020" transform="translate(54,4)"/>
<path d="M0 0 C3.3 0 6.6 0 10 0 C9.67 1.32 9.34 2.64 9 4 C8.236875 3.649375 7.47375 3.29875 6.6875 2.9375 C3.95240621 1.67639116 3.95240621 1.67639116 1 3 C0.67 2.01 0.34 1.02 0 0 Z " fill="#EEEFEC" transform="translate(78,0)"/>
<path d="M0 0 C0.33 0.66 0.66 1.32 1 2 C1.66 2 2.32 2 3 2 C3 3.65 3 5.3 3 7 C1.68 7.33 0.36 7.66 -1 8 C-0.67 5.36 -0.34 2.72 0 0 Z " fill="#131313" transform="translate(63,81)"/>
<path d="M0 0 C1.65 0 3.3 0 5 0 C5.6875 1.8125 5.6875 1.8125 6 4 C4.5625 5.75 4.5625 5.75 3 7 C2.690625 6.21625 2.38125 5.4325 2.0625 4.625 C1.07124962 2.07669872 1.07124962 2.07669872 0 0 Z " fill="#262722" transform="translate(63,73)"/>
<path d="M0 0 C0.66 0.33 1.32 0.66 2 1 C2.75 3.4375 2.75 3.4375 3 6 C2.34 6.66 1.68 7.32 1 8 C0.01 6.68 -0.98 5.36 -2 4 C-1.34 2.68 -0.68 1.36 0 0 Z " fill="#1C1D17" transform="translate(37,35)"/>
<path d="M0 0 C1.98 0.495 1.98 0.495 4 1 C4 1.66 4 2.32 4 3 C4.66 3.33 5.32 3.66 6 4 C2.86650268 5.04449911 2.01031744 4.93423645 -1 4 C-0.67 2.68 -0.34 1.36 0 0 Z " fill="#12130E" transform="translate(30,17)"/>
<path d="M0 0 C-0.125 1.875 -0.125 1.875 -1 4 C-4.0625 5.25 -4.0625 5.25 -7 6 C-7 5.34 -7 4.68 -7 4 C-6.34 4 -5.68 4 -5 4 C-5 3.01 -5 2.02 -5 1 C-2 0 -2 0 0 0 Z " fill="#D6D7D1" transform="translate(72,61)"/>
<path d="M0 0 C0.33 0 0.66 0 1 0 C1.33 3.63 1.66 7.26 2 11 C1.01 11 0.02 11 -1 11 C-0.67 10.01 -0.34 9.02 0 8 C-0.350625 7.360625 -0.70125 6.72125 -1.0625 6.0625 C-1.371875 5.381875 -1.68125 4.70125 -2 4 C-1.125 1.75 -1.125 1.75 0 0 Z " fill="#121212" transform="translate(73,46)"/>
<path d="M0 0 C2.99324263 1.0975223 3.84610901 1.67682892 5.25 4.625 C5.4975 5.40875 5.745 6.1925 6 7 C4.125 6.875 4.125 6.875 2 6 C0.75 2.9375 0.75 2.9375 0 0 Z " fill="#ECECE7" transform="translate(53,18)"/>
<path d="M0 0 C0.66 0 1.32 0 2 0 C1.5359375 0.86625 1.5359375 0.86625 1.0625 1.75 C0.07416636 3.84294184 -0.5168613 5.74535275 -1 8 C0.32 7.67 1.64 7.34 3 7 C3 7.66 3 8.32 3 9 C1.35 9 -0.3 9 -2 9 C-2.25 3.375 -2.25 3.375 0 0 Z " fill="#E5E5E4" transform="translate(59,79)"/>
<path d="M0 0 C2.62901288 1.52206009 4.84365964 2.84365964 7 5 C6.34 5 5.68 5 5 5 C4.67 5.66 4.34 6.32 4 7 C2.35 5.35 0.7 3.7 -1 2 C-0.67 1.34 -0.34 0.68 0 0 Z " fill="#E4E5DF" transform="translate(33,39)"/>
<path d="M0 0 C4.75 1.875 4.75 1.875 7 3 C7 3.66 7 4.32 7 5 C4.625 5.125 4.625 5.125 2 5 C1.34 4.34 0.68 3.68 0 3 C0 2.01 0 1.02 0 0 Z " fill="#151612" transform="translate(20,24)"/>
<path d="M0 0 C0.66 0.66 1.32 1.32 2 2 C2.66 2 3.32 2 4 2 C3.67 3.65 3.34 5.3 3 7 C2.01 6.67 1.02 6.34 0 6 C-0.38218767 4.34385343 -0.71395102 2.67542976 -1 1 C-0.67 0.67 -0.34 0.34 0 0 Z " fill="#0F0F0F" transform="translate(45,68)"/>
<path d="M0 0 C0.33 0 0.66 0 1 0 C1.33 2.97 1.66 5.94 2 9 C1.01 9 0.02 9 -1 9 C-0.67 6.03 -0.34 3.06 0 0 Z " fill="#EDEDEB" transform="translate(42,59)"/>
<path d="M0 0 C1.9375 0.6875 1.9375 0.6875 2.9375 2.6875 C0.9575 3.0175 -1.0225 3.3475 -3.0625 3.6875 C-3.3925 2.6975 -3.7225 1.7075 -4.0625 0.6875 C-2.0625 -0.3125 -2.0625 -0.3125 0 0 Z " fill="#2E2F29" transform="translate(29.0625,50.3125)"/>
<path d="M0 0 C2.86697492 1.28519565 4.97607712 2.57129254 7 5 C7 5.66 7 6.32 7 7 C3.17053157 5.54744301 1.87949705 3.57104439 0 0 Z " fill="#E7E8E2" transform="translate(61,21)"/>
<path d="M0 0 C0.66 1.32 1.32 2.64 2 4 C1.01 4.66 0.02 5.32 -1 6 C-1.66 6.99 -2.32 7.98 -3 9 C-3.33 8.01 -3.66 7.02 -4 6 C-3.67 5.34 -3.34 4.68 -3 4 C-2.34 4 -1.68 4 -1 4 C-0.67 2.68 -0.34 1.36 0 0 Z " fill="#E8E8E8" transform="translate(65,88)"/>
<path d="M0 0 C0.66 0 1.32 0 2 0 C1.34 2.97 0.68 5.94 0 9 C-0.33 9 -0.66 9 -1 9 C-1.125 2.25 -1.125 2.25 0 0 Z " fill="#222322" transform="translate(35,79)"/>
<path d="M0 0 C0.33 0.66 0.66 1.32 1 2 C1.66 2 2.32 2 3 2 C1.92598892 4.91517292 1.22189824 6.77810176 -1 9 C-1.33 8.01 -1.66 7.02 -2 6 C-1.34 5.01 -0.68 4.02 0 3 C0 2.01 0 1.02 0 0 Z " fill="#F3F3EE" transform="translate(36,70)"/>
<path d="M0 0 C1.125 1.6875 1.125 1.6875 2 4 C1.125 6.75 1.125 6.75 0 9 C-0.99 9 -1.98 9 -3 9 C-2.67 8.34 -2.34 7.68 -2 7 C-1.22227595 4.66682784 -0.57584432 2.38564077 0 0 Z " fill="#252523" transform="translate(44,61)"/>
<path d="M0 0 C0.66 0 1.32 0 2 0 C1.67 2.31 1.34 4.62 1 7 C0.01 6.67 -0.98 6.34 -2 6 C-1.49396008 3.83125748 -1.00016187 2.00032373 0 0 Z " fill="#DDDDD8" transform="translate(58,62)"/>
<path d="M0 0 C0.99 0.495 0.99 0.495 2 1 C2.75 3.9375 2.75 3.9375 3 7 C2.34 7.66 1.68 8.32 1 9 C0.29925156 5.846632 0 3.27275026 0 0 Z " fill="#BEBFBC" transform="translate(45,60)"/>
<path d="M0 0 C2.475 0.99 2.475 0.99 5 2 C5 2.99 5 3.98 5 5 C2.525 4.01 2.525 4.01 0 3 C0 2.01 0 1.02 0 0 Z " fill="#ECEDE7" transform="translate(28,53)"/>
<path d="M0 0 C0.66 1.32 1.32 2.64 2 4 C0.68 4.99 -0.64 5.98 -2 7 C-2.33 5.68 -2.66 4.36 -3 3 C-2.34 3 -1.68 3 -1 3 C-0.67 2.01 -0.34 1.02 0 0 Z " fill="#2D2925" transform="translate(63,36)"/>
<path d="M0 0 C3.875 1.75 3.875 1.75 5 4 C4.34 4 3.68 4 3 4 C2.67 4.66 2.34 5.32 2 6 C1.34 5.34 0.68 4.68 0 4 C0 2.68 0 1.36 0 0 Z " fill="#22231E" transform="translate(62,25)"/>
<path d="M0 0 C0.93423645 3.01031744 1.04449911 3.86650268 0 7 C-0.99 7.33 -1.98 7.66 -3 8 C-2.45276317 4.62537285 -1.9451 2.91765 0 0 Z " fill="#F0F1EB" transform="translate(48,25)"/>
<path d="M0 0 C3.00617269 3.00617269 2.59585316 5.82381598 3 10 C1.20762558 7.31143836 0.01553817 5.0466145 -1 2 C-0.67 1.34 -0.34 0.68 0 0 Z " fill="#E5E5E2" transform="translate(26,12)"/>
<path d="M0 0 C0.66 0 1.32 0 2 0 C2.33 2.31 2.66 4.62 3 7 C1.35 5.35 -0.3 3.7 -2 2 C-1.34 1.34 -0.68 0.68 0 0 Z " fill="#272727" transform="translate(44,4)"/>
</svg>
