<?xml version="1.0" encoding="UTF-8"?>
<svg version="1.1" xmlns="http://www.w3.org/2000/svg" width="450" height="450">
<path d="M0 0 C4.18584183 3.48072299 8.12098322 7.18264389 12 11 C12.70640625 11.68191406 13.4128125 12.36382812 14.140625 13.06640625 C34.2800207 33.98354284 42.70937306 63.54209338 42.40258789 91.91650391 C41.60058136 121.33855651 30.53197109 146.33069307 11.4375 168.5 C-0.24301816 182.13825851 -6.08196925 195.69651002 -7.74902344 213.54052734 C-8.53302623 220.69828293 -11.01412172 225.46718578 -15.63671875 230.93652344 C-17.24729789 233.37431264 -17.38041964 234.73570329 -17.40625 237.6328125 C-17.43912109 238.96699219 -17.43912109 238.96699219 -17.47265625 240.328125 C-17.48167969 241.25109375 -17.49070312 242.1740625 -17.5 243.125 C-17.59845466 252.9423359 -18.61729923 262.11548728 -25 270 C-27.17172386 271.99074687 -29.32626918 273.61640585 -31.88671875 275.07421875 C-35.78915357 277.31161472 -38.4257524 279.26839313 -41 283 C-45.24437437 289.07977951 -50.48267499 291.9209188 -57.66699219 293.60302734 C-70.67666903 295.8166873 -87.18679516 295.84775541 -98.484375 288.3515625 C-102.40114025 285.17092689 -104.13582758 282.66043104 -106 278 C-107.97583715 277.26480478 -109.98177598 276.60927518 -112 276 C-118.15876665 272.83922328 -121.44705452 268.35733483 -124 262 C-125.60092888 256.79479408 -126.02139222 251.62448612 -126.08984375 246.203125 C-126.14351859 233.77420262 -126.14351859 233.77420262 -132.2890625 223.26171875 C-136.10372546 218.21904785 -136.58931498 211.49383075 -137.59375 205.39453125 C-140.59633324 188.14755012 -149.09425054 176.45528462 -160.1328125 163.49609375 C-181.38855544 138.0666523 -188.40710997 107.09468889 -185.79785156 74.47265625 C-182.4214701 45.06628486 -167.22878152 18.35609411 -144.39404297 -0.31298828 C-101.65557602 -33.25859431 -42.56575614 -33.22598115 0 0 Z " fill="#FDFEFE" transform="translate(303,133)"/>
<path d="M0 0 C4.18584183 3.48072299 8.12098322 7.18264389 12 11 C12.70640625 11.68191406 13.4128125 12.36382812 14.140625 13.06640625 C34.2800207 33.98354284 42.70937306 63.54209338 42.40258789 91.91650391 C41.60058136 121.33855651 30.53197109 146.33069307 11.4375 168.5 C-0.24301816 182.13825851 -6.08196925 195.69651002 -7.74902344 213.54052734 C-8.53302623 220.69828293 -11.01412172 225.46718578 -15.63671875 230.93652344 C-17.24729789 233.37431264 -17.38041964 234.73570329 -17.40625 237.6328125 C-17.43912109 238.96699219 -17.43912109 238.96699219 -17.47265625 240.328125 C-17.48167969 241.25109375 -17.49070312 242.1740625 -17.5 243.125 C-17.59845466 252.9423359 -18.61729923 262.11548728 -25 270 C-27.17172386 271.99074687 -29.32626918 273.61640585 -31.88671875 275.07421875 C-35.78915357 277.31161472 -38.4257524 279.26839313 -41 283 C-45.24437437 289.07977951 -50.48267499 291.9209188 -57.66699219 293.60302734 C-70.67666903 295.8166873 -87.18679516 295.84775541 -98.484375 288.3515625 C-102.40114025 285.17092689 -104.13582758 282.66043104 -106 278 C-107.97583715 277.26480478 -109.98177598 276.60927518 -112 276 C-118.15876665 272.83922328 -121.44705452 268.35733483 -124 262 C-125.60092888 256.79479408 -126.02139222 251.62448612 -126.08984375 246.203125 C-126.14351859 233.77420262 -126.14351859 233.77420262 -132.2890625 223.26171875 C-136.10372546 218.21904785 -136.58931498 211.49383075 -137.59375 205.39453125 C-140.59633324 188.14755012 -149.09425054 176.45528462 -160.1328125 163.49609375 C-181.38855544 138.0666523 -188.40710997 107.09468889 -185.79785156 74.47265625 C-182.4214701 45.06628486 -167.22878152 18.35609411 -144.39404297 -0.31298828 C-101.65557602 -33.25859431 -42.56575614 -33.22598115 0 0 Z M-143.75 33.25 C-159.78771328 53.73294902 -164.18558703 77.94499806 -161.76416016 103.48779297 C-159.23718032 121.55429271 -149.60295096 138.28249255 -138 152 C-124.19878105 168.93881519 -114.1358124 187.03616441 -112.24609375 209.25 C-112.17544605 211.02513699 -112.17544605 211.02513699 -111 212 C-108.56603981 212.09498646 -106.16057048 212.12558417 -103.72631836 212.11352539 C-102.96539383 212.11367142 -102.2044693 212.11381744 -101.42048645 212.1139679 C-98.89357702 212.11326862 -96.36674038 212.10547555 -93.83984375 212.09765625 C-92.0924941 212.09579212 -90.34514393 212.0943682 -88.59779358 212.09336853 C-83.98968066 212.08954293 -79.38159905 212.07971229 -74.77349854 212.06866455 C-70.07491479 212.05845134 -65.37632601 212.0538711 -60.67773438 212.04882812 C-51.45180913 212.03809005 -42.22590716 212.02101313 -33 212 C-31.6727168 209.34543361 -31.63079399 206.9570538 -31.3125 204 C-28.51933521 184.1012494 -19.94593986 168.18244774 -7 153 C12.73861669 129.02723209 19.72027984 106.15719605 18 75 C17.35828437 69.76130296 15.89192964 64.92149016 14 60 C13.62617188 58.95328125 13.25234375 57.9065625 12.8671875 56.828125 C8.39926218 45.1700947 1.57667317 35.96231495 -7 27 C-7.55171875 26.38511719 -8.1034375 25.77023438 -8.671875 25.13671875 C-20.0752575 12.85832422 -36.01324661 5.15136667 -52 1 C-52.85722656 0.773125 -53.71445313 0.54625 -54.59765625 0.3125 C-88.33509443 -7.19629613 -121.80456041 7.91093574 -143.75 33.25 Z " fill="#020202" transform="translate(303,133)"/>
<path d="M0 0 C3.14116265 2.72234096 5.55225693 5.09661698 7 9 C7.18447042 11.83465277 7.25552822 14.55089133 7.21484375 17.3828125 C7.2083934 18.21612091 7.20194305 19.04942932 7.19529724 19.9079895 C7.05974374 29.92176483 6.3179182 39.89262555 5.5625 49.875 C5.42581163 51.74995486 5.28974215 53.62495493 5.15429688 55.5 C4.89514914 59.07249733 4.63001265 62.64445678 4.35888672 66.21606445 C4.1346529 69.17223678 3.92072003 72.12859967 3.72314453 75.08666992 C3.64306152 76.24529541 3.56297852 77.4039209 3.48046875 78.59765625 C3.41625732 79.57226807 3.3520459 80.54687988 3.28588867 81.55102539 C2.71827102 86.41334195 1.00580147 89.0923255 -2.5625 92.3125 C-7.04823619 95.41800967 -10.62850054 95.62501427 -16 95 C-20.89793498 92.78206718 -22.90159675 90.05997217 -25.13708496 85.39334106 C-26.74869301 80.92345986 -26.83992224 76.36413348 -27.046875 71.65234375 C-27.10780334 70.56401749 -27.16873169 69.47569122 -27.23150635 68.35438538 C-27.35712868 66.05106596 -27.47428828 63.74727125 -27.58349609 61.44311523 C-27.74706668 57.99925879 -27.93545505 54.55752778 -28.12890625 51.11523438 C-28.49171852 44.41230774 -28.77238483 37.70882066 -29 31 C-29.03826904 29.90230286 -29.07653809 28.80460571 -29.1159668 27.67364502 C-29.21329029 24.5128112 -29.27734026 21.35329645 -29.328125 18.19140625 C-29.35694763 17.2486937 -29.38577026 16.30598114 -29.41546631 15.33470154 C-29.45587241 9.6990513 -28.83159007 6.43378342 -25 2 C-17.06280522 -4.11825431 -8.87975561 -4.8587342 0 0 Z " fill="#010101" transform="translate(242,167)"/>
<path d="M0 0 C4.33803542 2.65328245 7.14742869 6.59674609 9.08203125 11.2734375 C10.0229963 18.20686422 9.72154567 23.93506862 5.5078125 29.65625 C1.73058127 33.94056158 -2.21447843 36.80428134 -7.953125 37.53125 C-13.77597915 37.83088229 -18.14814663 36.6581366 -22.91796875 33.2734375 C-27.84426405 28.70973754 -29.97929437 24.0885735 -30.29296875 17.4609375 C-30.14958988 11.04712252 -28.12711007 6.48257882 -23.60546875 1.9609375 C-15.3190153 -3.24218443 -8.8327562 -4.24333432 0 0 Z " fill="#020101" transform="translate(240.91796875,277.7265625)"/>
<path d="M0 0 C5.70497618 5.39516499 9.77408782 12.01964325 13.8125 18.6875 C14.67004883 20.07291992 14.67004883 20.07291992 15.54492188 21.48632812 C19.97525499 28.71750639 23.01996669 34.35382081 22 43 C20.7671112 45.89728868 19.7754988 47.39683427 17.3125 49.3125 C13.77564723 50.36399677 10.60147382 50.75807068 7 50 C1.03771255 46.40779346 -2.53874381 40.69534514 -6.0625 34.875 C-6.8373877 33.61574707 -6.8373877 33.61574707 -7.62792969 32.33105469 C-19.31193372 13.14275027 -19.31193372 13.14275027 -18 6 C-16.9301708 3.0579697 -15.96062722 1.57767448 -13.265625 -0.04296875 C-8.33030597 -2.23325568 -4.98798921 -2.44864925 0 0 Z " fill="#050505" transform="translate(132,62)"/>
<path d="M0 0 C3.77097425 1.3656203 6.14277253 4.17617006 7.8984375 7.6875 C8.16616733 14.84810687 5.71114148 19.39630961 1.4609375 24.9375 C0.9246875 25.66404785 0.3884375 26.3905957 -0.1640625 27.13916016 C-1.79280696 29.33536612 -3.44587629 31.5115695 -5.1015625 33.6875 C-6.06250716 34.98079907 -7.02221749 36.27501653 -7.98046875 37.5703125 C-16.56548524 49.04195306 -16.56548524 49.04195306 -22.5390625 50.5625 C-27.42843962 50.73405709 -29.3861092 49.22549261 -32.9140625 46.0625 C-34.89434588 42.10193324 -35.11149617 38.90865987 -34.1015625 34.6875 C-31.58166607 29.67296925 -28.40549826 25.2117887 -25.1015625 20.6875 C-24.30685547 19.58486816 -24.30685547 19.58486816 -23.49609375 18.45996094 C-21.81951587 16.14733865 -20.12239958 13.85174538 -18.4140625 11.5625 C-17.61319214 10.4787207 -17.61319214 10.4787207 -16.79614258 9.37304688 C-12.22947825 3.3997907 -8.02381272 -1.47564372 0 0 Z " fill="#050505" transform="translate(340.1015625,61.3125)"/>
<path d="M0 0 C1.94922406 0.82505802 3.90848697 1.62158003 5.87036133 2.41601562 C7.13081792 2.94039951 8.39060914 3.46638622 9.6496582 3.99414062 C10.77476807 4.46432617 11.89987793 4.93451172 13.05908203 5.41894531 C16.96835144 7.52353013 20.11774037 10.04749247 22.13012695 14.07226562 C22.50605847 19.05335821 22.30664305 22.12900426 19.13012695 26.07226562 C16.07043902 28.77199027 14.50685086 29.08015513 10.3996582 28.99414062 C3.93046762 28.16130425 -2.02595544 25.67154445 -8.03662109 23.25439453 C-10.05553019 22.4480017 -12.08542903 21.67570674 -14.11791992 20.90429688 C-21.19632801 18.13721847 -26.65274451 15.70586338 -30.86987305 9.07226562 C-31.645723 4.64992089 -31.2152529 2.72602034 -29.11987305 -1.24023438 C-21.36592902 -10.50188973 -9.23712134 -3.92381583 0 0 Z " fill="#050505" transform="translate(84.869873046875,150.927734375)"/>
<path d="M0 0 C3.6578218 2.03993908 5.66946174 3.50419262 8 7 C8.3359375 9.0859375 8.3359375 9.0859375 8.375 11.375 C8.40335937 12.12523437 8.43171875 12.87546875 8.4609375 13.6484375 C7.80042967 17.01814693 6.4029743 18.56561427 4 21 C0.9609375 22.7734375 0.9609375 22.7734375 -2.625 24.375 C-3.27017578 24.66318604 -3.91535156 24.95137207 -4.58007812 25.24829102 C-6.71148353 26.18699156 -8.85330308 27.09684521 -11 28 C-11.7744043 28.32887207 -12.54880859 28.65774414 -13.34667969 28.99658203 C-15.72372452 29.99614246 -18.10912025 30.97154299 -20.5 31.9375 C-21.24072754 32.24413574 -21.98145508 32.55077148 -22.74462891 32.86669922 C-27.29833905 34.65341585 -31.03008291 35.53118278 -36 35 C-39.04172389 33.41248673 -41.45151837 31.09696325 -43 28 C-43.23828125 26.01171875 -43.23828125 26.01171875 -43.3125 23.6875 C-43.34988281 22.92824219 -43.38726562 22.16898438 -43.42578125 21.38671875 C-42.7903983 17.82507673 -41.63814002 16.5210628 -39 14 C-35.59086003 12.04864422 -32.04129456 10.4929737 -28.4375 8.9375 C-27.49841797 8.51662109 -26.55933594 8.09574219 -25.59179688 7.66210938 C-5.83254225 -1.08512414 -5.83254225 -1.08512414 0 0 Z " fill="#050505" transform="translate(398,145)"/>
<path d="M0 0 C2.69032629 2.2523662 3.5361082 3.04956031 4.6875 6.25 C4.89141018 8.98167146 4.99159545 11.60848597 4.98828125 14.33984375 C4.99256638 15.12138321 4.9968515 15.90292267 5.00126648 16.70814514 C5.00699915 18.35807325 5.00751787 20.00802663 5.00317383 21.65795898 C5.00001517 24.17540831 5.02348036 26.69168034 5.04882812 29.20898438 C5.05110145 30.81510269 5.05180446 32.42122415 5.05078125 34.02734375 C5.059991 34.77644516 5.06920074 35.52554657 5.07868958 36.29734802 C5.0388783 40.81906569 4.38339684 43.60894845 1.6875 47.25 C1.295625 47.8275 0.90375 48.405 0.5 49 C-2.5181444 51.0814789 -5.73726273 51.47345233 -9.3125 51.25 C-13.81773542 49.03988451 -16.17576836 46.74799857 -18.3125 42.25 C-18.61149127 39.45501881 -18.75712797 36.88972905 -18.74609375 34.09765625 C-18.7513356 33.31990341 -18.75657745 32.54215057 -18.76197815 31.74082947 C-18.76838187 30.10107615 -18.76708274 28.4612768 -18.75854492 26.8215332 C-18.75003761 24.32354257 -18.77881126 21.82784298 -18.81054688 19.33007812 C-18.81215927 17.73177151 -18.81158062 16.13346088 -18.80859375 14.53515625 C-18.81982773 13.79435318 -18.83106171 13.05355011 -18.84263611 12.29029846 C-18.77400995 7.13906394 -17.53891935 4.2292127 -14.3125 0.25 C-9.85056409 -3.1349169 -4.73332379 -2.50062389 0 0 Z " fill="#040404" transform="translate(235.3125,34.75)"/>
<path d="M0 0 C19.47 0 38.94 0 59 0 C59 4.62 59 9.24 59 14 C39.53 14 20.06 14 0 14 C0 9.38 0 4.76 0 0 Z " fill="#FEFEFE" transform="translate(202,370)"/>
<path d="M0 0 C0.66 0.33 1.32 0.66 2 1 C-5.26 8.26 -12.52 15.52 -20 23 C-20.66 22.67 -21.32 22.34 -22 22 C-5.28846154 3.59615385 -5.28846154 3.59615385 0 0 Z " fill="#181818" transform="translate(161,131)"/>
</svg>
